<svg width="92" height="113" viewBox="0 0 92 113" fill="none" xmlns="http://www.w3.org/2000/svg">
<rect width="92" height="113" rx="8" fill="#FF005C"/>
<path d="M8.792 19.552C8.792 17.888 9.152 16.408 9.872 15.112C10.592 13.8 11.592 12.784 12.872 12.064C14.168 11.328 15.632 10.96 17.264 10.96C19.264 10.96 20.976 11.488 22.4 12.544C23.824 13.6 24.776 15.04 25.256 16.864H20.744C20.408 16.16 19.928 15.624 19.304 15.256C18.696 14.888 18 14.704 17.216 14.704C15.952 14.704 14.928 15.144 14.144 16.024C13.36 16.904 12.968 18.08 12.968 19.552C12.968 21.024 13.36 22.2 14.144 23.08C14.928 23.96 15.952 24.4 17.216 24.4C18 24.4 18.696 24.216 19.304 23.848C19.928 23.48 20.408 22.944 20.744 22.24H25.256C24.776 24.064 23.824 25.504 22.4 26.56C20.976 27.6 19.264 28.12 17.264 28.12C15.632 28.12 14.168 27.76 12.872 27.04C11.592 26.304 10.592 25.288 9.872 23.992C9.152 22.696 8.792 21.216 8.792 19.552ZM33.8653 28.192C32.5533 28.192 31.3693 27.912 30.3133 27.352C29.2733 26.792 28.4493 25.992 27.8413 24.952C27.2493 23.912 26.9533 22.696 26.9533 21.304C26.9533 19.928 27.2573 18.72 27.8652 17.68C28.4733 16.624 29.3053 15.816 30.3613 15.256C31.4173 14.696 32.6013 14.416 33.9133 14.416C35.2253 14.416 36.4093 14.696 37.4653 15.256C38.5213 15.816 39.3533 16.624 39.9613 17.68C40.5693 18.72 40.8733 19.928 40.8733 21.304C40.8733 22.68 40.5613 23.896 39.9373 24.952C39.3293 25.992 38.4893 26.792 37.4173 27.352C36.3613 27.912 35.1773 28.192 33.8653 28.192ZM33.8653 24.64C34.6493 24.64 35.3133 24.352 35.8573 23.776C36.4173 23.2 36.6973 22.376 36.6973 21.304C36.6973 20.232 36.4253 19.408 35.8813 18.832C35.3533 18.256 34.6973 17.968 33.9133 17.968C33.1133 17.968 32.4493 18.256 31.9213 18.832C31.3933 19.392 31.1293 20.216 31.1293 21.304C31.1293 22.376 31.3853 23.2 31.8973 23.776C32.4253 24.352 33.0813 24.64 33.8653 24.64ZM56.2745 14.608V28H52.1705V26.176C51.7545 26.768 51.1865 27.248 50.4665 27.616C49.7625 27.968 48.9785 28.144 48.1145 28.144C47.0905 28.144 46.1865 27.92 45.4025 27.472C44.6185 27.008 44.0105 26.344 43.5785 25.48C43.1465 24.616 42.9305 23.6 42.9305 22.432V14.608H47.0105V21.88C47.0105 22.776 47.2425 23.472 47.7065 23.968C48.1705 24.464 48.7945 24.712 49.5785 24.712C50.3785 24.712 51.0105 24.464 51.4745 23.968C51.9385 23.472 52.1705 22.776 52.1705 21.88V14.608H56.2745ZM67.3824 14.464C68.9504 14.464 70.1984 14.976 71.1264 16C72.0704 17.008 72.5424 18.4 72.5424 20.176V28H68.4624V20.728C68.4624 19.832 68.2304 19.136 67.7664 18.64C67.3024 18.144 66.6784 17.896 65.8944 17.896C65.1104 17.896 64.4864 18.144 64.0224 18.64C63.5584 19.136 63.3264 19.832 63.3264 20.728V28H59.2224V14.608H63.3264V16.384C63.7424 15.792 64.3024 15.328 65.0064 14.992C65.7104 14.64 66.5024 14.464 67.3824 14.464ZM82.8583 24.52V28H80.7703C79.2823 28 78.1223 27.64 77.2903 26.92C76.4583 26.184 76.0423 24.992 76.0423 23.344V18.016H74.4103V14.608H76.0423V11.344H80.1463V14.608H82.8343V18.016H80.1463V23.392C80.1463 23.792 80.2423 24.08 80.4343 24.256C80.6263 24.432 80.9463 24.52 81.3943 24.52H82.8583ZM28.568 47.152V64H24.464V53.896L20.696 64H17.384L13.592 53.872V64H9.488V47.152H14.336L19.064 58.816L23.744 47.152H28.568ZM44.1432 57.088C44.1432 57.472 44.1193 57.872 44.0713 58.288H34.7833C34.8473 59.12 35.1113 59.76 35.5753 60.208C36.0553 60.64 36.6393 60.856 37.3273 60.856C38.3513 60.856 39.0633 60.424 39.4633 59.56H43.8313C43.6073 60.44 43.1993 61.232 42.6073 61.936C42.0313 62.64 41.3033 63.192 40.4233 63.592C39.5433 63.992 38.5593 64.192 37.4713 64.192C36.1593 64.192 34.9913 63.912 33.9673 63.352C32.9433 62.792 32.1433 61.992 31.5673 60.952C30.9913 59.912 30.7033 58.696 30.7033 57.304C30.7033 55.912 30.9833 54.696 31.5433 53.656C32.1193 52.616 32.9193 51.816 33.9433 51.256C34.9673 50.696 36.1433 50.416 37.4713 50.416C38.7673 50.416 39.9193 50.688 40.9273 51.232C41.9353 51.776 42.7193 52.552 43.2793 53.56C43.8553 54.568 44.1432 55.744 44.1432 57.088ZM39.9433 56.008C39.9433 55.304 39.7033 54.744 39.2233 54.328C38.7433 53.912 38.1433 53.704 37.4233 53.704C36.7353 53.704 36.1513 53.904 35.6713 54.304C35.2073 54.704 34.9193 55.272 34.8073 56.008H39.9433ZM13.592 83.152V100H9.488V83.152H13.592ZM24.7261 86.464C26.2941 86.464 27.5421 86.976 28.4701 88C29.4141 89.008 29.8861 90.4 29.8861 92.176V100H25.8061V92.728C25.8061 91.832 25.5741 91.136 25.1101 90.64C24.6461 90.144 24.0221 89.896 23.2381 89.896C22.4541 89.896 21.8301 90.144 21.3661 90.64C20.9021 91.136 20.6701 91.832 20.6701 92.728V100H16.5661V86.608H20.6701V88.384C21.0861 87.792 21.6461 87.328 22.3501 86.992C23.0541 86.64 23.8461 86.464 24.7261 86.464Z" fill="#FFF7E4"/>
</svg>
